<svg xmlns="http://www.w3.org/2000/svg" class="schematic-svg" viewBox="0 0 600 340">
   <defs><path id="resistor-path-vc" d="m0 0 l-10 5 l20 10 l-20 10 l20 10 l-10 5"/></defs>
   <text x="70" y="25">VCC</text><line x1="70" y1="30" x2="70" y2="70"/>
   <use href="#resistor-path-vc" x="70" y="70"/><line x1="70" y1="110" x2="70" y2="150"/>
   <circle cx="70" cy="150" r="4" fill="#333"/>
   <text class="label" x="135" y="80">R1</text><text id="r1-value-vc" x="135" y="98">--k</text>
   <line x1="70" y1="150" x2="70" y2="180"/><use href="#resistor-path-vc" x="70" y="180"/>
   <line x1="70" y1="220" x2="70" y2="280"/>
   <text class="label" x="135" y="190">R2</text><text id="r2-value-vc" x="135" y="208">--k</text>
   <text x="70" y="315">GND</text><path d="M70 280 V295 M55 295 H85 M60 290 H80 M65 285 H75"/>
   <path d="M250 110 L250 210 L380 160 Z"/>
   <text x="258" y="140">+</text><text x="258" y="180">-</text>
   <line x1="70" y1="150" x2="250" y2="170"/><text id="vref-text-vc" x="160" y="155">VRef</text>
   <line x1="180" y1="140" x2="250" y2="140"/><circle cx="180" cy="140" r="4" fill="#333"/>
   <text class="label" id="vsense-label-vc" x="120" y="135">V_Sensor</text>
   <line x1="380" y1="160" x2="450" y2="160"/><circle cx="450" cy="160" r="4" fill="#333"/>
   <line x1="450" y1="160" x2="520" y2="160"/><text class="label" x="550" y="165">Vout</text>
   <text x="450" y="55">VCC</text><line x1="450" y1="60" x2="450" y2="70"/>
   <use href="#resistor-path-vc" x="450" y="70"/><line x1="450" y1="110" x2="450" y2="160"/>
   <text class="label" x="505" y="80">Rp</text><text x="505" y="98">10k</text>
   <line x1="450" y1="160" x2="450" y2="180"/><use href="#resistor-path-vc" x="450" y="180"/>
   <line x1="450" y1="220" x2="450" y2="250"/><line x1="450" y1="250" x2="180" y2="250"/>
   <line x1="180" y1="250" x2="180" y2="140"/>
   <text class="label" x="315" y="245">Rf</text><text id="rf-value-vc" x="315" y="263">--k</text>
</svg>
