<svg xmlns="http://www.w3.org/2000/svg" class="schematic-svg" viewBox="0 0 600 340">
    <defs><path id="resistor-path" d="m0 0 l-10 5 l20 10 l-20 10 l20 10 l-10 5"/></defs>
    <text x="100" y="25">VCC</text><line x1="100" y1="30" x2="100" y2="40"/>
    <text x="100" y="335">GND</text><path d="M100 300 V315 M85 315 H115 M90 310 H110 M95 305 H105"/>
    <line x1="100" y1="40" x2="100" y2="70"/><use href="#resistor-path" x="100" y="70"/>
    <line x1="100" y1="110" x2="100" y2="150"/><circle cx="100" cy="150" r="4" fill="#333"/>
    <text class="label" x="165" y="80">R_fixed</text><text id="r-fixed-value-res" x="165" y="98">--k</text>
    <line x1="100" y1="150" x2="100" y2="180"/><use href="#resistor-path" x="100" y="180"/>
    <line x1="100" y1="220" x2="100" y2="300"/>
    <text class="label" x="165" y="190">Sensor</text><text x="165" y="208">(PTC)</text>
    <path d="M250 110 L250 210 L380 160 Z"/>
    <text x="258" y="140">+</text><text x="258" y="180">-</text>
    <line x1="100" y1="150" x2="250" y2="140"/>
    <line x1="180" y1="170" x2="250" y2="170"/><text id="vref-text-res" x="160" y="175">--V</text>
    <line x1="380" y1="160" x2="450" y2="160"/><circle cx="450" cy="160" r="4" fill="#333"/>
    <line x1="450" y1="160" x2="520" y2="160"/><text class="label" x="550" y="165">Vout</text>
    <text x="450" y="55">VCC</text><line x1="450" y1="60" x2="450" y2="70"/>
    <use href="#resistor-path" x="450" y="70"/><line x1="450" y1="110" x2="450" y2="160"/>
    <text class="label" x="505" y="80">Rp</text><text x="505" y="98">10k</text>
    <line x1="450" y1="160" x2="450" y2="180"/><use href="#resistor-path" x="450" y="180"/>
    <line x1="450" y1="220" x2="450" y2="250"/><line x1="450" y1="250" x2="200" y2="250"/>
    <line x1="200" y1="250" x2="200" y2="140"/><line x1="200" y1="140" x2="250" y2="140"/>
    <circle cx="200" cy="140" r="4" fill="#333"/>
    <text class="label" x="325" y="245">Rf</text><text id="rf-value-res" x="325" y="263">--k</text>
</svg>
